<svg width="100" height="100" viewBox="0 0 100 100" fill="none" xmlns="http://www.w3.org/2000/svg">
<path d="M49.9996 100C22.4297 100 0 77.5703 0 49.9996C0 22.4297 22.4297 0 49.9996 0C77.5695 0 99.9992 22.4297 99.9992 49.9996C99.9992 77.5703 77.5695 100 49.9996 100ZM49.9996 4.93141C25.1494 4.93141 4.93141 25.1494 4.93141 49.9996C4.93141 74.8506 25.1494 95.0686 49.9996 95.0686C74.8498 95.0686 95.0678 74.8506 95.0678 49.9996C95.0678 25.1494 74.8506 4.93141 49.9996 4.93141Z" fill="#F0A259"/>
<path d="M22.0502 56.8748C25.8468 56.8748 28.9246 53.797 28.9246 50.0004C28.9246 46.2037 25.8468 43.126 22.0502 43.126C18.2535 43.126 15.1758 46.2037 15.1758 50.0004C15.1758 53.797 18.2535 56.8748 22.0502 56.8748Z" fill="#F0A259"/>
<path d="M77.9506 56.8748C81.7472 56.8748 84.825 53.797 84.825 50.0004C84.825 46.2037 81.7472 43.126 77.9506 43.126C74.1539 43.126 71.0762 46.2037 71.0762 50.0004C71.0762 53.797 74.1539 56.8748 77.9506 56.8748Z" fill="#F0A259"/>
<path d="M37.2344 74.4683H64.894" stroke="#F0A259" stroke-width="4" stroke-linecap="round"/>
</svg>
