<svg width="100" height="100" viewBox="0 0 100 100" fill="none" xmlns="http://www.w3.org/2000/svg">
<path d="M33 70.9999C33 70.9999 39.4693 76.5896 50.3204 76.5318C61.1714 76.474 67 71 67 71" stroke="#6EB854" stroke-width="4" stroke-linecap="round"/>
<path d="M49.9992 100C22.4295 100 0 77.5697 0 49.9992C0 22.4295 22.4295 0 49.9992 0C77.5688 0 99.9984 22.4295 99.9984 49.9992C99.9984 77.5697 77.5688 100 49.9992 100ZM49.9992 4.93137C25.1492 4.93137 4.93137 25.1492 4.93137 49.9992C4.93137 74.85 25.1492 95.0686 49.9992 95.0686C74.8492 95.0686 95.067 74.85 95.067 49.9992C95.067 25.1492 74.8492 4.93137 49.9992 4.93137Z" fill="#6EB854"/>
<path d="M22.0502 56.8748C25.8468 56.8748 28.9246 53.797 28.9246 50.0004C28.9246 46.2037 25.8468 43.126 22.0502 43.126C18.2535 43.126 15.1758 46.2037 15.1758 50.0004C15.1758 53.797 18.2535 56.8748 22.0502 56.8748Z" fill="#6EB854"/>
<path d="M77.9506 56.8748C81.7472 56.8748 84.825 53.797 84.825 50.0004C84.825 46.2037 81.7472 43.126 77.9506 43.126C74.1539 43.126 71.0762 46.2037 71.0762 50.0004C71.0762 53.797 74.1539 56.8748 77.9506 56.8748Z" fill="#6EB854"/>
</svg>
