<svg width="57" height="57" viewBox="0 0 57 57" fill="none" xmlns="http://www.w3.org/2000/svg">
<g clip-path="url(#clip0_33_6)">
<path d="M28.4007 56.9996C12.8514 56.9996 0.201172 44.3489 0.201172 28.7991C0.201172 13.2499 12.8514 0.599609 28.4007 0.599609C43.95 0.599609 56.6002 13.2499 56.6002 28.7991C56.6002 44.3489 43.95 56.9996 28.4007 56.9996ZM28.4007 3.3809C14.3853 3.3809 2.98247 14.7837 2.98247 28.7991C2.98247 42.815 14.3853 54.2183 28.4007 54.2183C42.4161 54.2183 53.819 42.815 53.819 28.7991C53.819 14.7837 42.4161 3.3809 28.4007 3.3809Z" fill="#35A171"/>
<path d="M28.308 47.1562C23.6535 47.1562 19.8672 43.7811 19.8672 39.6323H22.6485C22.6485 42.2477 25.1873 44.3749 28.308 44.3749C31.4281 44.3749 33.9665 42.2472 33.9665 39.6323H36.7478C36.7478 43.7806 32.9615 47.1562 28.308 47.1562Z" fill="#35A171"/>
<path d="M21.7018 31.2948H18.9205C18.9205 28.7744 17.2067 26.7242 15.0999 26.7242C12.9931 26.7242 11.2793 28.7744 11.2793 31.2948H8.49805C8.49805 27.2406 11.4597 23.9429 15.0999 23.9429C18.7402 23.9429 21.7018 27.2406 21.7018 31.2948Z" fill="#35A171"/>
<path d="M48.3033 31.2948H45.5221C45.5221 28.7744 43.8083 26.7242 41.7015 26.7242C39.5946 26.7242 37.8809 28.7744 37.8809 31.2948H35.0996C35.0996 27.2406 38.0612 23.9429 41.7015 23.9429C45.3417 23.9429 48.3033 27.2406 48.3033 31.2948Z" fill="#35A171"/>
</g>
<defs>
<clipPath id="clip0_33_6">
<rect width="56.4" height="56.4" fill="white" transform="translate(0.199219 0.599609)"/>
</clipPath>
</defs>
</svg>
