<svg width="57" height="57" viewBox="0 0 57 57" fill="none" xmlns="http://www.w3.org/2000/svg">
<g clip-path="url(#clip0_33_84)">
<g clip-path="url(#clip1_33_84)">
<path d="M28.4009 56.5992C12.8515 56.5992 0.201172 43.9489 0.201172 28.399C0.201172 12.8496 12.8515 0.199219 28.4009 0.199219C43.9504 0.199219 56.6007 12.8496 56.6007 28.399C56.6007 43.9489 43.9504 56.5992 28.4009 56.5992ZM28.4009 2.98054C14.3854 2.98054 2.98249 14.3835 2.98249 28.399C2.98249 42.415 14.3854 53.8179 28.4009 53.8179C42.4165 53.8179 53.8194 42.415 53.8194 28.399C53.8194 14.3835 42.4169 2.98054 28.4009 2.98054Z" fill="#F0A259"/>
<path d="M12.6369 32.2763C14.7782 32.2763 16.5141 30.5404 16.5141 28.3991C16.5141 26.2578 14.7782 24.522 12.6369 24.522C10.4956 24.522 8.75977 26.2578 8.75977 28.3991C8.75977 30.5404 10.4956 32.2763 12.6369 32.2763Z" fill="#F0A259"/>
<path d="M44.1662 32.2763C46.3075 32.2763 48.0434 30.5404 48.0434 28.3991C48.0434 26.2578 46.3075 24.522 44.1662 24.522C42.0249 24.522 40.2891 26.2578 40.2891 28.3991C40.2891 30.5404 42.0249 32.2763 44.1662 32.2763Z" fill="#F0A259"/>
<path d="M21.1992 42.1997H36.7992" stroke="#F0A259" stroke-width="2.4" stroke-linecap="round"/>
</g>
</g>
<defs>
<clipPath id="clip0_33_84">
<rect width="56.4" height="56.4" fill="white" transform="translate(0.199219 0.199707)"/>
</clipPath>
<clipPath id="clip1_33_84">
<rect width="56.4" height="56.4" fill="white" transform="translate(0.199219 0.199707)"/>
</clipPath>
</defs>
</svg>
