<svg width="57" height="57" viewBox="0 0 57 57" fill="none" xmlns="http://www.w3.org/2000/svg">
<g clip-path="url(#clip0_33_48)">
<g clip-path="url(#clip1_33_48)">
<path d="M28.4009 56.5997C12.8515 56.5997 0.201172 43.9494 0.201172 28.3995C0.201172 12.8501 12.8515 0.199707 28.4009 0.199707C43.9504 0.199707 56.6007 12.8501 56.6007 28.3995C56.6007 43.9494 43.9504 56.5997 28.4009 56.5997ZM28.4009 2.98102C14.3854 2.98102 2.98249 14.384 2.98249 28.3995C2.98249 42.4155 14.3854 53.8184 28.4009 53.8184C42.4165 53.8184 53.8194 42.4155 53.8194 28.3995C53.8194 14.384 42.4169 2.98102 28.4009 2.98102Z" fill="#923F3F"/>
<path d="M12.6369 32.2768C14.7782 32.2768 16.5141 30.5409 16.5141 28.3996C16.5141 26.2583 14.7782 24.5225 12.6369 24.5225C10.4956 24.5225 8.75977 26.2583 8.75977 28.3996C8.75977 30.5409 10.4956 32.2768 12.6369 32.2768Z" fill="#923F3F"/>
<path d="M44.1662 32.2768C46.3075 32.2768 48.0434 30.5409 48.0434 28.3996C48.0434 26.2583 46.3075 24.5225 44.1662 24.5225C42.0249 24.5225 40.2891 26.2583 40.2891 28.3996C40.2891 30.5409 42.0249 32.2768 44.1662 32.2768Z" fill="#923F3F"/>
<path d="M36.7479 45.3672H33.9666C33.9666 42.7518 31.4277 40.6246 28.3076 40.6246C25.1874 40.6246 22.6485 42.7523 22.6485 45.3672H19.8672C19.8672 41.2184 23.6535 37.8433 28.3076 37.8433C32.9616 37.8433 36.7479 41.2179 36.7479 45.3672Z" fill="#923F3F"/>
</g>
</g>
<defs>
<clipPath id="clip0_33_48">
<rect width="56.4" height="56.4" fill="white" transform="translate(0.199219 0.200195)"/>
</clipPath>
<clipPath id="clip1_33_48">
<rect width="56.4" height="56.4" fill="white" transform="translate(0.199219 0.200195)"/>
</clipPath>
</defs>
</svg>
