<svg width="15" height="15" viewBox="0 0 15 15" fill="none" xmlns="http://www.w3.org/2000/svg">
<path fill-rule="evenodd" clip-rule="evenodd" d="M7.07083 0.650391C6.67379 0.650391 6.32965 0.925249 6.24186 1.31246L6.00378 2.36262C5.62478 2.47284 5.26323 2.62378 4.92424 2.81028L4.01323 2.236C3.67736 2.02428 3.23966 2.07327 2.95891 2.35401L2.35282 2.96011C2.07208 3.24085 2.02308 3.67855 2.23481 4.01442L2.8093 4.92576C2.62295 5.26465 2.47215 5.62609 2.36204 6.00496L1.31197 6.24302C0.924761 6.3308 0.649902 6.67495 0.649902 7.07198V7.92912C0.649902 8.32616 0.924761 8.6703 1.31197 8.75809L2.36216 8.99618C2.47234 9.37515 2.62323 9.73667 2.80967 10.0757L2.23528 10.9869C2.02355 11.3227 2.07255 11.7604 2.35329 12.0412L2.95939 12.6473C3.24013 12.928 3.67783 12.977 4.0137 12.7653L4.92494 12.1909C5.26372 12.3772 5.62504 12.528 6.00378 12.6381L6.24186 13.6883C6.32965 14.0755 6.67379 14.3504 7.07083 14.3504H7.92797C8.325 14.3504 8.66915 14.0755 8.75693 13.6883L8.99493 12.6385C9.37399 12.5284 9.73561 12.3775 10.0747 12.1911L10.9859 12.7655C11.3217 12.9772 11.7594 12.9282 12.0402 12.6475L12.6463 12.0414C12.927 11.7606 12.976 11.3229 12.7643 10.9871L12.1901 10.0762C12.3767 9.73703 12.5277 9.3753 12.6379 8.99611L13.6878 8.75809C14.075 8.6703 14.3499 8.32616 14.3499 7.92912V7.07198C14.3499 6.67495 14.075 6.3308 13.6878 6.24302L12.638 6.00503C12.5279 5.62593 12.377 5.26429 12.1905 4.92522L12.7647 4.01422C12.9765 3.67835 12.9275 3.24065 12.6467 2.9599L12.0406 2.35381C11.7599 2.07307 11.3222 2.02407 10.9863 2.2358L10.0754 2.81004C9.7361 2.62343 9.37425 2.47244 8.99493 2.36224L8.75693 1.31246C8.66915 0.925249 8.325 0.650391 7.92797 0.650391H7.07083ZM4.92041 3.81266C5.44712 3.44354 6.05653 3.18439 6.71531 3.06854L7.07083 1.50039H7.92797L8.28343 3.06831C8.94255 3.18402 9.55228 3.44317 10.0793 3.81239L11.4396 2.95485L12.0457 3.56094L11.1881 4.92132C11.5572 5.44813 11.8163 6.05765 11.932 6.71653L13.4999 7.07198V7.92912L11.9319 8.28459C11.8161 8.94357 11.5569 9.55316 11.1877 10.08L12.0452 11.4404L11.4391 12.0464L10.0786 11.1888C9.5518 11.5578 8.94229 11.8168 8.28343 11.9325L7.92797 13.5004H7.07083L6.71531 11.9322C6.05678 11.8164 5.4476 11.5574 4.92104 11.1885L3.56043 12.0462L2.95433 11.4401L3.81201 10.0796C3.44298 9.55281 3.18391 8.94341 3.06813 8.28465L1.4999 7.92912V7.07198L3.06806 6.71647C3.18376 6.0578 3.44271 5.44848 3.81159 4.9218L2.95386 3.56115L3.55996 2.95506L4.92041 3.81266ZM9.02484 7.50023C9.02484 8.34241 8.34211 9.02514 7.49993 9.02514C6.65774 9.02514 5.97501 8.34241 5.97501 7.50023C5.97501 6.65804 6.65774 5.97531 7.49993 5.97531C8.34211 5.97531 9.02484 6.65804 9.02484 7.50023ZM9.92484 7.50023C9.92484 8.83947 8.83917 9.92514 7.49993 9.92514C6.16068 9.92514 5.07501 8.83947 5.07501 7.50023C5.07501 6.16099 6.16068 5.07531 7.49993 5.07531C8.83917 5.07531 9.92484 6.16099 9.92484 7.50023Z" fill="white"/>
</svg>
